# xmcd CD database file
#
# Track frame offsets:
#	150
#	32228
#	56012
#	96780
#	124599
#	151583
#	171371
#	191935
#	240756
#	278659
#
# Disc length: 3931 seconds
#
# Revision: 0
# Processed by: cddbd v1.5.2PL0 Copyright (c) Steve Scherf et al.
# Submitted via: CDex 1.51
#
DISCID=7c0f590a
DTITLE=Moonshine Society - Live in Shanghai
DYEAR=2011
DGENRE=Blues
TTITLE0=Moonshine Society - Breaking Up Somebody's Home
TTITLE1=Moonshine Society - Bright Lights Big City
TTITLE2=Moonshine Society - Love Me Like a Man
TTITLE3=Moonshine Society - Big Boss Man
TTITLE4=Moonshine Society - Killing Me Softly
TTITLE5=Moonshine Society - Sugar Coated Love
TTITLE6=Moonshine Society - Better Than This
TTITLE7=Moonshine Society - Rock Me Baby and Te Ni Nee Ni Nu
TTITLE8=Moonshine Society - Do What You Want To Do
TTITLE9=Moonshine Society - Michelle
EXTD=YEAR: 2011
EXTT0=
EXTT1=
EXTT2=
EXTT3=
EXTT4=
EXTT5=
EXTT6=
EXTT7=
EXTT8=
EXTT9=
PLAYORDER=
